<?xml version="1.0" encoding="UTF-8"?>
<svg width="18px" height="19px" viewBox="0 0 18 19" version="1.1" xmlns="http://www.w3.org/2000/svg" xmlns:xlink="http://www.w3.org/1999/xlink">
    <title>notificaitons</title>
    <desc>Created with Sketch.</desc>
    <defs></defs>
    <g id="desktop" stroke="none" stroke-width="1" fill="none" fill-rule="evenodd">
        <g id="ICONS" transform="translate(-27.000000, -46.000000)" stroke="#FFFFFF">
            <g id="Group-7" transform="translate(28.000000, 41.000000)">
                <g id="notificaitons" transform="translate(0.000000, 5.000000)">
                    <g id="Group" transform="translate(0.278571, 0.000000)">
                        <path d="M15.5099571,12.8419714 C14.6208857,11.89512 12.69324,9.37000286 12.8508429,5.39683714 C12.9441086,3.04737429 11.6719457,1.80190286 10.3765629,1.14372 C8.74136571,0.312968571 6.78340286,0.312968571 5.14820571,1.14372 C3.85274571,1.80182571 2.58058286,3.04729714 2.67384857,5.39676 C2.83152857,9.37000286 0.903882857,11.89512 0.0148114286,12.8418943" id="Shape"></path>
                        <path d="M15.5099571,12.8419714 C11.28492,16.2839314 4.23437143,16.2795343 0.0148114286,12.8419714" id="Shape"></path>
                        <path d="M6.01799143,16.6144114 C6.01799143,17.3741914 6.80052857,17.9923371 7.76211429,17.9923371 C8.72408571,17.9923371 9.5067,17.3741914 9.5067,16.6144114" id="Shape"></path>
                    </g>
                </g>
            </g>
        </g>
    </g>
</svg>
