<?xml version="1.0" encoding="UTF-8"?>
<svg width="20px" height="20px" viewBox="0 0 20 20" version="1.1" xmlns="http://www.w3.org/2000/svg" xmlns:xlink="http://www.w3.org/1999/xlink">
    <!-- Generator: Sketch 46.2 (44496) - http://www.bohemiancoding.com/sketch -->
    <title>decisions</title>
    <desc>Created with Sketch.</desc>
    <defs></defs>
    <g id="desktop" stroke="none" stroke-width="1" fill="none" fill-rule="evenodd">
        <g id="ICONS" transform="translate(-29.000000, -243.000000)" stroke="#FFFFFF">
            <g id="decisions" transform="translate(30.000000, 244.000000)">
                <polygon id="Stroke-1" points="0.375 17.625 7.125 17.625 7.125 16.125 0.375 16.125"></polygon>
                <polygon id="Stroke-3" points="1.125 16.125 6.375 16.125 6.375 14.625 1.125 14.625"></polygon>
                <polygon id="Stroke-4" points="9.7053 5.83485 10.8753 4.66485 6.5853 0.37485 5.41455 1.54485 5.8053 1.93485 2.6853 5.05485 2.29455 4.66485 1.1253 5.83485 5.41455 10.12485 6.5853 8.95485 6.19455 8.56485 9.31455 5.44485"></polygon>
                <path d="M8.52465,6.2355 L17.3079,15.02025 C17.73015,15.44325 17.73015,16.13475 17.3079,16.55775 C16.8849,16.98075 16.1934,16.98075 15.7704,16.55775 L6.9864,7.773" id="Stroke-5"></path>
            </g>
        </g>
    </g>
</svg>