<?xml version="1.0" encoding="UTF-8"?>
<svg width="15px" height="20px" viewBox="0 0 15 20" version="1.1" xmlns="http://www.w3.org/2000/svg" xmlns:xlink="http://www.w3.org/1999/xlink">
    <!-- Generator: Sketch 46.2 (44496) - http://www.bohemiancoding.com/sketch -->
    <title>disputes</title>
    <desc>Created with Sketch.</desc>
    <defs></defs>
    <g id="desktop" stroke="none" stroke-width="1" fill="none" fill-rule="evenodd">
        <g id="ICONS" transform="translate(-29.000000, -95.000000)" stroke="#FFFFFF">
            <g id="disputes" transform="translate(30.000000, 96.000000)">
                <polygon id="Stroke-1" points="12.9130435 4.30434783 12.9130435 17.6086957 0.391304348 17.6086957 0.391304348 0.391304348 9 0.391304348"></polygon>
                <polyline id="Stroke-3" points="12.9130435 4.30434783 9 4.30434783 9 0.391304348"></polyline>
                <path d="M5.86956522,11.3478261 L5.86956522,7.43478261 C5.86956522,7.00278261 6.22017391,6.65217391 6.65217391,6.65217391 C7.08417391,6.65217391 7.43478261,7.00278261 7.43478261,7.43478261 L7.43478261,11.3478261 C7.43478261,11.7798261 7.08417391,12.1304348 6.65217391,12.1304348 C6.22017391,12.1304348 5.86956522,11.7798261 5.86956522,11.3478261 Z" id="Stroke-5"></path>
                <path d="M7.43478261,14.4782609 C7.43478261,14.9102609 7.08417391,15.2608696 6.65217391,15.2608696 C6.22017391,15.2608696 5.86956522,14.9102609 5.86956522,14.4782609 C5.86956522,14.0462609 6.22017391,13.6956522 6.65217391,13.6956522 C7.08417391,13.6956522 7.43478261,14.0462609 7.43478261,14.4782609 Z" id="Stroke-7"></path>
            </g>
        </g>
    </g>
</svg>