<?xml version="1.0" encoding="UTF-8"?>
<svg width="20px" height="19px" viewBox="0 0 20 19" version="1.1" xmlns="http://www.w3.org/2000/svg" xmlns:xlink="http://www.w3.org/1999/xlink">
    <!-- Generator: Sketch 46.2 (44496) - http://www.bohemiancoding.com/sketch -->
    <title>download icon</title>
    <desc>Created with Sketch.</desc>
    <defs></defs>
    <g id="desktop" stroke="none" stroke-width="1" fill="none" fill-rule="evenodd">
        <g id="ICONS" transform="translate(-368.000000, -131.000000)" fill="#1B2431">
            <path d="M377.05125,144.38875 C377.28625,144.62375 377.60375,144.755 377.93625,144.755 C377.9525,144.755 377.965,144.74625 377.98125,144.74625 C377.9875,144.74625 377.99375,144.75 378,144.75 C378.42125,144.75 378.775,144.52875 379.00125,144.21125 L382.61875,140.60875 C383.10875,140.12125 383.10875,139.33 382.61875,138.84125 C382.13,138.35375 381.3375,138.35375 380.8475,138.84125 L379.25,140.43 L379.25,132.25 C379.25,131.56 378.69125,131 378,131 C377.31,131 376.75,131.56 376.75,132.25 L376.75,140.525 L375.11375,138.85125 C374.625,138.36375 373.8325,138.36375 373.34375,138.85125 C372.85375,139.34 372.85375,140.13125 373.34375,140.61875 L377.05125,144.38875 Z M386.75,142.25 C386.06,142.25 385.5,142.81 385.5,143.5 L385.5,144.75 L385.5,146 C385.5,146.69 384.94125,147.25 384.25,147.25 L371.75,147.25 C371.06,147.25 370.5,146.69 370.5,146 L370.5,144.75 L370.5,143.5 C370.5,142.81 369.94125,142.25 369.25,142.25 C368.56,142.25 368,142.81 368,143.5 L368,144.75 L368,147.25 C368,148.63125 369.12,149.75 370.5,149.75 L385.5,149.75 C386.88125,149.75 388,148.63125 388,147.25 L388,144.75 L388,143.5 C388,142.81 387.44125,142.25 386.75,142.25 L386.75,142.25 Z" id="download-icon"></path>
        </g>
    </g>
</svg>