<?xml version="1.0" encoding="UTF-8"?>
<svg width="20px" height="16px" viewBox="0 0 20 16" version="1.1" xmlns="http://www.w3.org/2000/svg" xmlns:xlink="http://www.w3.org/1999/xlink">
    <!-- Generator: Sketch 46.2 (44496) - http://www.bohemiancoding.com/sketch -->
    <title>jury</title>
    <desc>Created with Sketch.</desc>
    <defs></defs>
    <g id="desktop" stroke="none" stroke-width="1" fill="none" fill-rule="evenodd">
        <g id="ICONS" transform="translate(-29.000000, -196.000000)" stroke="#FFFFFF">
            <g id="jury" transform="translate(30.000000, 197.000000)">
                <path d="M10.5651391,3.91304348 C10.5651391,5.85782609 8.98818261,7.43478261 7.0434,7.43478261 C5.09861739,7.43478261 3.52166087,5.85782609 3.52166087,3.91304348 C3.52166087,1.96826087 5.09861739,0.391304348 7.0434,0.391304348 C8.98818261,0.391304348 10.5651391,1.96826087 10.5651391,3.91304348 Z" id="Stroke-1"></path>
                <path d="M13.6955739,14.4782609 L13.6955739,13.5172174 C13.6955739,10.1582609 10.7177478,7.43478261 7.0434,7.43478261 C3.36983478,7.43478261 0.391226087,10.1582609 0.391226087,13.5172174 L0.391226087,14.4782609" id="Stroke-3"></path>
                <path d="M12.5216609,1.95652174 C14.0344435,1.95652174 15.2607913,3.18286957 15.2607913,4.69565217 C15.2607913,6.20843478 14.0344435,7.43478261 12.5216609,7.43478261" id="Stroke-5"></path>
                <path d="M17.6086174,12.9130435 L17.6086174,12.1656522 C17.6086174,9.55330435 15.3312261,7.43478261 12.5216609,7.43478261" id="Stroke-7"></path>
            </g>
        </g>
    </g>
</svg>