<?xml version="1.0" encoding="UTF-8"?>
<svg width="16px" height="16px" viewBox="0 0 16 16" version="1.1" xmlns="http://www.w3.org/2000/svg" xmlns:xlink="http://www.w3.org/1999/xlink">
    <!-- Generator: Sketch 46.2 (44496) - http://www.bohemiancoding.com/sketch -->
    <title>ZOOM</title>
    <desc>Created with Sketch.</desc>
    <defs></defs>
    <g id="desktop" stroke="none" stroke-width="1" fill="none" fill-rule="evenodd">
        <g id="ICONS" transform="translate(-499.000000, -134.000000)" fill-rule="nonzero" fill="#1B2431">
            <g id="ZOOM" transform="translate(499.000000, 134.000000)">
                <path d="M3.65217391,11.3230337 L3.65217391,9.44913587 C3.65217391,9.04900656 3.33053275,8.72463768 2.92753623,8.72463768 C2.52732989,8.72463768 2.20289855,9.04965946 2.20289855,9.45139808 L2.20289855,13.0703411 C2.20289855,13.4717197 2.52792034,13.7971014 2.92965895,13.7971014 L6.54860192,13.7971014 C6.94998062,13.7971014 7.27536232,13.4754603 7.27536232,13.0724638 C7.27536232,12.6722574 6.95382851,12.3478261 6.55086413,12.3478261 L4.67696634,12.3478261 L12.3478261,4.67696634 L12.3478261,6.55086413 C12.3478261,6.95099344 12.6694672,7.27536232 13.0724638,7.27536232 C13.4726701,7.27536232 13.7971014,6.95034054 13.7971014,6.54860192 L13.7971014,2.92965895 C13.7971014,2.52828026 13.4720797,2.20289855 13.0703411,2.20289855 L9.45139808,2.20289855 C9.05001938,2.20289855 8.72463768,2.52453972 8.72463768,2.92753623 C8.72463768,3.32774257 9.04617149,3.65217391 9.44913587,3.65217391 L11.3230337,3.65217391 L3.65217391,11.3230337 Z M14.5210833,0.0289855072 C15.3218582,0.0289855072 15.9710145,0.678656243 15.9710145,1.47891666 L15.9710145,14.5210833 C15.9710145,15.3218582 15.3213438,15.9710145 14.5210833,15.9710145 L1.47891666,15.9710145 C0.678141797,15.9710145 0.0289855072,15.3213438 0.0289855072,14.5210833 L0.0289855072,1.47891666 C0.0289855072,0.678141797 0.678656243,0.0289855072 1.47891666,0.0289855072 L14.5210833,0.0289855072 Z" id="Shape"></path>
            </g>
        </g>
    </g>
</svg>