<?xml version="1.0" encoding="UTF-8"?>
<svg width="20px" height="20px" viewBox="0 0 20 20" version="1.1" xmlns="http://www.w3.org/2000/svg" xmlns:xlink="http://www.w3.org/1999/xlink">
    <title>Settings</title>
    <desc>Kleros</desc>
    <defs></defs>
    <g id="desktop" stroke="none" stroke-width="1" fill="none" fill-rule="evenodd">
        <g id="ICONS" transform="translate(-27.000000, -344.000000)" stroke="#FFFFFF">
            <g id="settings" transform="translate(28.000000, 345.000000)">
                <path d="M17.624925,10.140375 L17.624925,7.858875 C17.624925,7.453875 17.296425,7.124625 16.890675,7.124625 L15.093675,7.124625 C14.975175,6.739125 14.819175,6.369375 14.633175,6.018375 L15.905175,4.746375 C16.192425,4.459125 16.192425,3.994875 15.905175,3.707625 L14.292675,2.094375 C14.005425,1.807875 13.540425,1.807875 13.253925,2.094375 L11.981925,3.367125 C11.630925,3.180375 11.261175,3.025125 10.874925,2.905875 L10.874925,1.108875 C10.874925,0.703875 10.546425,0.374625 10.140675,0.374625 L7.859175,0.374625 C7.453425,0.374625 7.124925,0.703875 7.124925,1.108875 L7.124925,2.905875 C6.738675,3.025125 6.369675,3.180375 6.017925,3.367125 L4.745925,2.094375 C4.459425,1.807875 3.994425,1.807875 3.707175,2.094375 L2.094675,3.707625 C1.807425,3.994875 1.807425,4.459125 2.094675,4.746375 L3.366675,6.018375 C3.180675,6.369375 3.024675,6.739125 2.906175,7.124625 L1.109175,7.124625 C0.703425,7.124625 0.374925,7.453875 0.374925,7.858875 L0.374925,10.140375 C0.374925,10.546125 0.703425,10.874625 1.109175,10.874625 L2.906175,10.874625 C3.024675,11.260875 3.180675,11.629875 3.366675,11.981625 L2.094675,13.253625 C1.807425,13.540125 1.807425,14.005125 2.094675,14.292375 L3.707175,15.905625 C3.994425,16.192125 4.459425,16.192125 4.745925,15.905625 L6.017925,14.632875 C6.369675,14.818875 6.738675,14.974875 7.124925,15.093375 L7.124925,16.890375 C7.124925,17.296125 7.453425,17.624625 7.859175,17.624625 L10.140675,17.624625 C10.546425,17.624625 10.874925,17.296125 10.874925,16.890375 L10.874925,15.093375 C11.261175,14.974875 11.630925,14.818875 11.981925,14.632875 L13.253925,15.905625 C13.540425,16.192125 14.005425,16.192125 14.292675,15.905625 L15.905175,14.292375 C16.192425,14.005125 16.192425,13.540125 15.905175,13.253625 L14.633175,11.981625 C14.819175,11.629875 14.975175,11.260875 15.093675,10.874625 L16.890675,10.874625 C17.296425,10.874625 17.624925,10.546125 17.624925,10.140375 Z" id="Stroke-1"></path>
                <path d="M13.874925,9 C13.874925,11.6925 11.692425,13.875 8.999925,13.875 C6.307425,13.875 4.124925,11.6925 4.124925,9 C4.124925,6.3075 6.307425,4.125 8.999925,4.125 C11.692425,4.125 13.874925,6.3075 13.874925,9 Z" id="Stroke-3"></path>
            </g>
        </g>
    </g>
</svg>
